{"glyphs":{"0":{"ha":960,"x_min":0,"x_max":0,"o":"m 479 -19 b 921 483 748 -19 921 178 b 479 985 921 789 748 985 b 37 483 211 985 37 789 b 479 -19 37 178 211 -19 z m 359 483 b 479 688 359 607 406 688 b 600 483 553 688 600 607 b 479 278 600 359 553 278 b 359 483 406 278 359 359 z "},"1":{"ha":558,"x_min":0,"x_max":0,"o":"m 188 966 l 31 894 l 31 599 l 188 671 l 188 0 l 509 0 l 509 966 z "},"2":{"ha":839,"x_min":0,"x_max":0,"o":"m 794 652 b 400 985 794 838 690 985 b 28 880 262 985 111 943 l 146 632 b 357 688 194 656 264 688 b 472 635 430 688 472 669 b 277 333 472 580 383 471 l 21 0 l 794 0 l 794 297 l 633 297 b 794 652 718 406 794 504 z "},"3":{"ha":858,"x_min":0,"x_max":0,"o":"m 389 985 b 29 880 251 985 125 943 l 148 632 b 370 688 195 656 265 688 b 474 653 437 688 474 674 b 329 618 474 628 441 618 l 329 372 b 498 325 441 372 498 359 b 358 278 498 291 441 278 b 148 334 253 278 195 310 l 29 86 b 377 -19 112 23 227 -19 b 819 283 655 -19 819 91 b 701 500 819 374 778 448 b 795 696 762 547 795 612 b 389 985 795 863 638 985 z "},"4":{"ha":1024,"x_min":0,"x_max":0,"o":"m 879 966 l 383 966 l 69 205 l 557 205 l 557 0 l 879 0 l 879 205 l 987 205 l 987 502 l 879 502 z m 502 502 l 557 639 l 557 502 z "},"5":{"ha":871,"x_min":0,"x_max":0,"o":"m 31 86 b 402 -19 114 23 253 -19 b 832 319 680 -19 832 115 b 424 642 832 526 686 626 l 427 669 l 761 669 l 761 966 l 130 966 l 81 372 l 342 372 b 511 325 454 372 511 359 b 371 278 511 291 454 278 b 149 334 266 278 196 310 l 31 86 z "},"6":{"ha":876,"x_min":0,"x_max":0,"o":"m 440 -19 b 846 319 687 -19 846 114 b 509 645 846 517 719 645 b 475 641 498 645 488 644 b 553 772 502 685 529 728 l 663 966 l 304 966 l 177 767 b 35 362 105 652 35 531 b 440 -19 35 114 206 -19 z m 357 350 b 440 372 381 365 407 372 b 525 325 492 372 525 354 b 453 278 525 296 504 278 b 357 350 397 278 362 310 z "},"7":{"ha":861,"x_min":0,"x_max":0,"o":"m 791 966 l 15 966 l 15 669 l 374 669 l 184 0 l 518 0 z "},"8":{"ha":914,"x_min":0,"x_max":0,"o":"m 850 696 b 457 985 850 863 705 985 b 63 696 208 985 63 863 b 146 501 63 613 93 548 b 39 283 78 449 39 376 b 457 -19 39 91 191 -19 b 875 283 722 -19 875 91 b 767 501 875 376 836 449 b 850 696 820 548 850 613 z m 360 325 b 457 372 360 359 405 372 b 553 325 509 372 553 359 b 457 278 553 291 509 278 b 360 325 405 278 360 291 z m 384 653 b 457 688 384 674 408 688 b 529 653 505 688 529 674 b 457 618 529 628 509 618 b 384 653 405 618 384 628 z "},"9":{"ha":876,"x_min":0,"x_max":0,"o":"m 841 616 b 435 985 841 853 669 985 b 29 647 189 985 29 853 b 366 321 29 449 156 321 b 400 325 377 321 388 322 b 323 194 373 281 347 238 l 213 0 l 583 0 l 698 199 b 841 616 766 316 841 459 z m 350 641 b 423 688 350 670 371 688 b 518 616 478 688 513 656 b 435 594 494 601 469 594 b 350 641 383 594 350 612 z "},"\u0000":{"ha":0,"x_min":0,"x_max":0,"o":""},"\n":{"ha":0,"x_min":0,"x_max":0,"o":""},"\r":{"ha":0,"x_min":0,"x_max":0,"o":""}," ":{"ha":507,"x_min":0,"x_max":0,"o":""},"!":{"ha":406,"x_min":0,"x_max":0,"o":"m 42 966 l 90 302 l 315 302 l 363 966 z m 54 129 b 202 -19 54 43 117 -19 b 351 129 288 -19 351 43 b 202 278 351 215 288 278 b 54 129 117 278 54 215 z "},"\"":{"ha":647,"x_min":0,"x_max":0,"o":"m 158 878 b 118 744 213 878 158 793 b 307 1026 219 793 307 912 b 158 1175 307 1112 244 1175 b 10 1026 73 1175 10 1112 b 158 878 10 941 73 878 z m 331 1026 b 479 878 331 941 394 878 b 440 744 534 878 479 793 b 628 1026 540 793 628 912 b 479 1175 628 1112 565 1175 b 331 1026 394 1175 331 1112 z "},"#":{"ha":844,"x_min":0,"x_max":0,"o":"m 268 717 l 303 966 l 238 966 l 203 717 l 82 717 l 73 652 l 194 652 l 146 314 l 25 314 l 17 249 l 137 249 l 102 0 l 168 0 l 203 249 l 577 249 l 542 0 l 607 0 l 642 249 l 763 249 l 771 314 l 651 314 l 699 652 l 820 652 l 828 717 l 707 717 l 742 966 l 677 966 l 642 717 z m 211 314 l 259 652 l 634 652 l 585 314 z "},"$":{"ha":924,"x_min":0,"x_max":0,"o":"m 426 983 b 57 652 158 965 57 825 b 426 378 57 436 276 400 l 426 278 l 398 278 b 152 334 281 278 199 310 l 33 86 b 426 -19 115 23 265 -18 l 426 -72 l 491 -72 l 491 -18 b 883 314 781 0 883 140 b 491 592 883 542 640 570 l 491 687 b 531 688 503 688 516 688 b 765 632 636 688 718 656 l 883 880 b 491 985 801 943 629 984 l 491 1038 l 426 1038 l 426 983 z m 379 635 b 426 677 379 654 396 668 l 426 604 b 379 635 397 611 379 621 z m 562 331 b 491 284 562 308 538 292 l 491 367 b 562 331 534 359 562 350 z "},"%":{"ha":958,"x_min":0,"x_max":0,"o":"m 14 671 b 238 456 14 541 102 456 b 463 671 375 456 463 541 b 238 886 463 802 375 886 b 14 671 102 886 14 802 z m 185 671 b 238 731 185 706 206 731 b 292 671 271 731 292 706 b 238 612 292 636 271 612 b 185 671 206 612 185 636 z m 753 966 l 683 966 l 205 0 l 275 0 z m 494 295 b 719 80 494 164 583 80 b 944 295 856 80 944 164 b 719 510 944 425 856 510 b 494 295 583 510 494 425 z m 666 295 b 719 354 666 330 686 354 b 772 295 752 354 772 330 b 719 235 772 260 752 235 b 666 295 686 235 666 260 z "},"&":{"ha":940,"x_min":0,"x_max":0,"o":"m 540 -19 b 897 29 640 -19 790 1 l 897 618 l 612 618 b 395 653 452 618 395 628 b 540 688 395 679 452 688 l 726 688 l 726 937 b 479 985 640 973 572 985 b 74 696 214 985 74 888 b 168 504 74 615 105 551 b 37 283 81 453 37 378 b 540 -19 37 91 178 -19 z m 359 325 b 576 372 359 359 415 372 l 576 278 b 359 325 415 278 359 291 z "},"'":{"ha":325,"x_min":0,"x_max":0,"o":"m 158 878 b 118 744 213 878 158 793 b 307 1026 219 793 307 912 b 158 1175 307 1112 244 1175 b 10 1026 73 1175 10 1112 b 158 878 10 941 73 878 z "},"(":{"ha":614,"x_min":0,"x_max":0,"o":"m 544 925 l 482 1154 b 42 483 214 1154 42 875 b 482 -188 42 91 214 -188 l 544 41 b 363 483 435 41 363 215 b 544 925 363 751 435 925 z "},")":{"ha":614,"x_min":0,"x_max":0,"o":"m 572 483 b 131 1154 572 875 399 1154 l 69 925 b 251 483 178 925 251 751 b 69 41 251 215 178 41 l 131 -188 b 572 483 399 -188 572 91 z "},"*":{"ha":374,"x_min":0,"x_max":0,"o":"m 29 966 l 29 901 l 108 901 l 52 845 l 98 799 l 154 855 l 154 776 l 219 776 l 219 855 l 274 799 l 320 845 l 265 901 l 343 901 l 343 966 l 265 966 l 320 1022 l 274 1067 l 219 1012 l 219 1090 l 154 1090 l 154 1012 l 98 1067 l 52 1022 l 108 966 z "},"+":{"ha":500,"x_min":0,"x_max":0,"o":"m 24 516 l 24 450 l 217 450 l 217 257 l 282 257 l 282 450 l 475 450 l 475 516 l 282 516 l 282 709 l 217 709 l 217 516 z "},",":{"ha":364,"x_min":0,"x_max":0,"o":"m 33 129 b 182 -19 33 43 96 -19 b 142 -153 236 -19 182 -104 b 330 129 242 -104 330 14 b 182 278 330 215 268 278 b 33 129 96 278 33 215 z "},"-":{"ha":428,"x_min":0,"x_max":0,"o":"m 24 516 l 24 450 l 403 450 l 403 516 z "},".":{"ha":364,"x_min":0,"x_max":0,"o":"m 182 -19 b 330 129 268 -19 330 43 b 182 278 330 215 268 278 b 33 129 96 278 33 215 b 182 -19 33 43 96 -19 z "},"/":{"ha":296,"x_min":0,"x_max":0,"o":"m 272 966 l 206 966 l -1 -145 l 64 -145 z "},":":{"ha":375,"x_min":0,"x_max":0,"o":"m 39 680 b 187 531 39 594 102 531 b 336 680 273 531 336 594 b 187 828 336 766 273 828 b 39 680 102 828 39 766 z m 187 138 b 336 286 273 138 336 200 b 187 435 336 372 273 435 b 39 286 102 435 39 372 b 187 138 39 200 102 138 z "},";":{"ha":376,"x_min":0,"x_max":0,"o":"m 187 531 b 336 680 273 531 336 594 b 187 828 336 766 273 828 b 39 680 102 828 39 766 b 187 531 39 594 102 531 z m 187 435 b 39 286 102 435 39 372 b 187 138 39 200 102 138 b 148 4 242 138 187 53 b 336 286 248 53 336 171 b 187 435 336 372 273 435 z "},"<":{"ha":490,"x_min":0,"x_max":0,"o":"m 461 854 l 69 483 l 461 112 l 461 178 l 216 483 l 461 789 z "},"=":{"ha":558,"x_min":0,"x_max":0,"o":"m 29 523 l 529 523 l 529 588 l 29 588 z m 29 443 l 29 378 l 529 378 l 529 443 z "},">":{"ha":490,"x_min":0,"x_max":0,"o":"m 29 854 l 29 789 l 274 483 l 29 178 l 29 112 l 420 483 z "},"?":{"ha":864,"x_min":0,"x_max":0,"o":"m 497 302 b 835 676 660 370 835 455 b 441 985 835 862 707 985 b 69 880 304 985 153 943 l 188 632 b 398 688 235 656 305 688 b 514 635 472 688 514 669 b 272 302 514 580 379 440 z m 236 129 b 385 -19 236 43 299 -19 b 533 129 470 -19 533 43 b 385 278 533 215 470 278 b 236 129 299 278 236 215 z "},"@":{"ha":1260,"x_min":0,"x_max":0,"o":"m 1004 740 l 699 740 l 699 700 b 521 760 656 738 597 760 b 207 378 330 760 207 610 b 521 -4 207 146 330 -4 b 738 100 623 -4 694 35 b 935 -4 777 30 844 -4 b 1223 414 1101 -4 1223 193 b 630 985 1223 746 990 985 b 38 378 271 985 38 747 b 630 -231 38 8 271 -231 b 882 -180 731 -231 803 -215 l 866 -118 b 630 -165 797 -150 719 -165 b 105 378 312 -165 105 48 b 630 920 105 708 312 920 b 1156 414 949 920 1156 708 b 1057 176 1156 297 1113 176 b 1004 281 1000 176 1004 235 l 1004 740 z m 511 378 b 605 482 511 441 548 482 b 699 378 662 482 699 441 b 605 274 699 315 662 274 b 511 378 548 274 511 315 z "},"A":{"ha":969,"x_min":0,"x_max":0,"o":"m 264 966 l -7 0 l 314 0 l 485 609 l 655 0 l 976 0 l 706 966 z "},"B":{"ha":926,"x_min":0,"x_max":0,"o":"m 47 937 l 47 29 b 405 -19 155 1 304 -19 b 907 283 767 -19 907 91 b 777 504 907 378 864 453 b 871 696 839 551 871 615 b 393 985 871 888 731 985 b 47 937 300 985 155 965 z m 368 618 l 368 688 b 550 653 501 687 550 676 b 368 618 550 630 501 619 z m 368 278 l 368 372 b 586 325 529 372 586 359 b 368 278 586 291 529 278 z "},"C":{"ha":874,"x_min":0,"x_max":0,"o":"m 15 483 b 530 -19 15 178 207 -19 b 865 98 667 -19 782 23 l 747 347 b 537 278 700 315 606 278 b 336 483 420 278 336 359 b 537 688 336 607 420 688 b 747 619 606 688 700 651 l 865 868 b 530 985 782 943 667 985 b 15 483 207 985 15 789 z "},"D":{"ha":925,"x_min":0,"x_max":0,"o":"m 47 937 l 47 29 b 393 -19 155 1 292 -19 b 907 483 723 -19 907 165 b 393 985 907 801 723 985 b 47 937 292 985 155 965 z m 368 278 l 368 688 b 586 483 506 688 586 611 b 368 278 586 355 506 278 z "},"E":{"ha":825,"x_min":0,"x_max":0,"o":"m 49 966 l 49 0 l 792 0 l 792 297 l 370 297 l 370 372 l 684 372 l 684 618 l 370 618 l 370 669 l 792 669 l 792 966 z "},"F":{"ha":800,"x_min":0,"x_max":0,"o":"m 49 966 l 49 0 l 370 0 l 370 299 l 684 299 l 684 546 l 370 546 l 370 669 l 792 669 l 792 966 z "},"G":{"ha":896,"x_min":0,"x_max":0,"o":"m 15 483 b 530 -19 15 178 207 -19 b 865 98 667 -19 782 23 l 865 483 l 544 483 l 544 278 l 537 278 b 336 483 420 278 336 359 b 537 688 336 607 420 688 b 747 619 606 688 700 651 l 865 868 b 530 985 782 943 667 985 b 15 483 207 985 15 789 z "},"H":{"ha":946,"x_min":0,"x_max":0,"o":"m 49 966 l 49 0 l 370 0 l 370 386 l 575 386 l 575 0 l 896 0 l 896 966 l 575 966 l 575 683 l 370 683 l 370 966 z "},"I":{"ha":419,"x_min":0,"x_max":0,"o":"m 49 966 l 49 0 l 370 0 l 370 966 z "},"J":{"ha":703,"x_min":0,"x_max":0,"o":"m 266 -19 b 665 376 511 -19 665 124 l 665 966 l 199 966 l 199 669 l 344 669 l 344 388 b 223 278 344 326 304 278 b 104 307 166 278 131 298 l -14 58 b 266 -19 65 6 147 -19 z "},"K":{"ha":949,"x_min":0,"x_max":0,"o":"m 49 966 l 49 0 l 370 0 l 370 384 l 587 0 l 957 0 l 643 555 l 945 966 l 575 966 l 370 687 l 370 966 z "},"L":{"ha":793,"x_min":0,"x_max":0,"o":"m 49 0 l 792 0 l 792 297 l 370 297 l 370 966 l 49 966 z "},"M":{"ha":1214,"x_min":0,"x_max":0,"o":"m 125 966 l 14 0 l 338 0 l 385 411 l 494 0 l 731 0 l 833 379 l 876 0 l 1200 0 l 1089 966 l 693 966 l 613 619 l 533 966 z "},"N":{"ha":946,"x_min":0,"x_max":0,"o":"m 49 966 l 49 0 l 370 0 l 370 367 l 515 0 l 896 0 l 896 966 l 575 966 l 575 599 l 430 966 z "},"O":{"ha":1011,"x_min":0,"x_max":0,"o":"m 506 -19 b 996 483 804 -19 996 178 b 506 985 996 789 804 985 b 15 483 207 985 15 789 b 506 -19 15 178 207 -19 z m 336 483 b 506 688 336 607 403 688 b 675 483 608 688 675 607 b 506 278 675 359 608 278 b 336 483 403 278 336 359 z "},"P":{"ha":915,"x_min":0,"x_max":0,"o":"m 49 937 l 49 0 l 370 0 l 370 297 l 430 297 b 908 641 782 297 908 431 b 406 985 908 863 744 985 b 49 937 306 985 156 965 z m 370 594 l 370 688 b 587 641 530 688 587 675 b 370 594 587 607 530 594 z "},"Q":{"ha":1015,"x_min":0,"x_max":0,"o":"m 17 483 b 191 81 17 308 81 168 b 136 52 172 72 154 64 l 136 -161 b 913 -161 427 21 622 -318 l 913 52 b 699 12 835 11 767 4 b 997 483 885 80 997 250 b 507 985 997 789 805 985 b 17 483 209 985 17 789 z m 507 278 b 338 483 404 278 338 359 b 507 688 338 607 404 688 b 676 483 610 688 676 607 b 507 278 676 359 610 278 z "},"R":{"ha":926,"x_min":0,"x_max":0,"o":"m 406 985 b 49 937 306 985 156 965 l 49 0 l 370 0 l 370 297 l 371 297 l 539 0 l 908 0 l 715 342 b 908 641 853 397 908 502 b 406 985 908 863 744 985 z m 370 594 l 370 688 b 587 641 530 688 587 675 b 370 594 587 607 530 594 z "},"S":{"ha":882,"x_min":0,"x_max":0,"o":"m 465 985 b 35 652 151 985 35 838 b 540 331 35 324 540 411 b 376 278 540 296 484 278 b 129 334 259 278 177 310 l 11 86 b 407 -19 94 23 245 -19 b 861 314 744 -19 861 128 b 356 635 861 642 356 555 b 509 688 356 670 413 688 b 743 632 614 688 696 656 l 861 880 b 465 985 778 943 603 985 z "},"T":{"ha":853,"x_min":0,"x_max":0,"o":"m 853 966 l 0 966 l 0 669 l 266 669 l 266 0 l 587 0 l 587 669 l 853 669 z "},"U":{"ha":906,"x_min":0,"x_max":0,"o":"m 870 423 l 870 966 l 549 966 l 549 423 b 453 278 549 334 512 278 b 356 423 393 278 356 334 l 356 966 l 35 966 l 35 423 b 453 -19 35 155 199 -19 b 870 423 706 -19 870 155 z "},"V":{"ha":943,"x_min":0,"x_max":0,"o":"m -8 966 l 262 0 l 680 0 l 950 966 l 629 966 l 471 401 l 313 966 z "},"W":{"ha":1251,"x_min":0,"x_max":0,"o":"m 144 0 l 552 0 l 631 347 l 711 0 l 1107 0 l 1242 966 l 919 966 l 861 551 l 750 966 l 513 966 l 395 522 l 332 966 l 8 966 z "},"X":{"ha":985,"x_min":0,"x_max":0,"o":"m 378 966 l 20 966 l 306 518 l -11 0 l 346 0 l 489 232 l 636 0 l 994 0 l 680 493 l 969 966 l 612 966 l 497 779 l 378 966 z "},"Y":{"ha":949,"x_min":0,"x_max":0,"o":"m -21 966 l 314 386 l 314 0 l 635 0 l 635 386 l 969 966 l 619 966 l 474 706 l 329 966 z "},"Ÿ":{"ha":949,"x_min":0,"x_max":0,"o":"m -21 966 l 314 386 l 314 0 l 635 0 l 635 386 l 969 966 l 619 966 l 474 706 l 329 966 z "},"Z":{"ha":919,"x_min":0,"x_max":0,"o":"m 920 966 l 48 966 l 48 669 l 390 669 l 0 0 l 872 0 l 872 297 l 530 297 z "},"[":{"ha":606,"x_min":0,"x_max":0,"o":"m 49 1118 l 49 -152 l 575 -152 l 575 145 l 370 145 l 370 821 l 575 821 l 575 1118 z "},"\\":{"ha":296,"x_min":0,"x_max":0,"o":"m 24 966 l 231 -145 l 297 -145 l 89 966 z "},"]":{"ha":606,"x_min":0,"x_max":0,"o":"m 556 1118 l 29 1118 l 29 821 l 234 821 l 234 145 l 29 145 l 29 -152 l 556 -152 z "},"^":{"ha":539,"x_min":0,"x_max":0,"o":"m 269 943 l 454 807 l 519 807 l 269 1089 l 19 807 l 85 807 z "},"_":{"ha":561,"x_min":0,"x_max":0,"o":"m 49 -43 l 49 -109 l 512 -109 l 512 -43 z "},"`":{"ha":325,"x_min":0,"x_max":0,"o":"m 158 878 b 118 744 213 878 158 793 b 307 1026 219 793 307 912 b 158 1175 307 1112 244 1175 b 10 1026 73 1175 10 1112 b 158 878 10 941 73 878 z "},"a":{"ha":863,"x_min":0,"x_max":0,"o":"m 818 725 l 514 725 l 514 685 b 335 744 470 722 411 744 b 21 362 144 744 21 594 b 335 -19 21 130 144 -19 b 514 40 411 -19 470 2 l 514 0 l 818 0 l 818 725 z m 325 362 b 419 466 325 425 363 466 b 514 362 476 466 514 425 b 419 258 514 299 476 258 b 325 362 363 258 325 299 z "},"b":{"ha":863,"x_min":0,"x_max":0,"o":"m 349 685 l 349 966 l 44 966 l 44 0 l 349 0 l 349 40 b 527 -19 392 2 451 -19 b 841 362 718 -19 841 130 b 527 744 841 594 718 744 b 349 685 451 744 392 722 z m 349 362 b 443 466 349 425 386 466 b 537 362 500 466 537 425 b 443 258 537 299 500 258 b 349 362 386 258 349 299 z "},"c":{"ha":718,"x_min":0,"x_max":0,"o":"m 493 466 b 663 430 541 466 630 449 l 687 702 b 469 744 655 725 533 744 b 15 362 194 744 15 594 b 469 -19 15 130 194 -19 b 687 23 533 -19 655 0 l 663 295 b 493 258 630 275 541 258 b 320 362 388 258 320 299 b 493 466 320 425 388 466 z "},"d":{"ha":863,"x_min":0,"x_max":0,"o":"m 514 966 l 514 685 b 335 744 470 722 411 744 b 21 362 144 744 21 594 b 335 -19 21 130 144 -19 b 514 40 411 -19 470 2 l 514 0 l 818 0 l 818 966 z m 325 362 b 419 466 325 425 363 466 b 514 362 476 466 514 425 b 419 258 514 299 476 258 b 325 362 363 258 325 299 z "},"e":{"ha":758,"x_min":0,"x_max":0,"o":"m 391 744 b 17 362 164 744 17 594 b 471 -19 17 130 195 -19 b 688 23 535 -19 657 0 l 664 295 b 495 258 631 275 542 258 b 329 338 412 258 351 284 l 741 338 l 741 413 b 391 744 741 613 604 744 z m 323 413 b 379 466 331 446 351 466 b 431 413 403 466 422 447 z "},"f":{"ha":499,"x_min":0,"x_max":0,"o":"m 486 696 l 511 967 b 390 985 491 976 442 985 b 44 640 180 985 44 850 l 44 0 l 349 0 l 349 362 l 457 362 l 482 640 l 349 640 b 426 708 349 681 374 708 b 486 696 450 708 472 702 z "},"g":{"ha":863,"x_min":0,"x_max":0,"o":"m 818 725 l 514 725 l 514 685 b 335 744 470 722 411 744 b 21 362 144 744 21 594 b 335 -19 21 130 144 -19 b 509 36 408 -19 466 1 b 340 -56 492 -27 429 -56 b 171 -19 293 -56 203 -39 l 146 -291 b 364 -333 178 -314 300 -333 b 818 48 639 -333 818 -184 l 818 725 z m 325 362 b 419 466 325 425 363 466 b 514 362 476 466 514 425 b 419 258 514 299 476 258 b 325 362 363 258 325 299 z "},"h":{"ha":878,"x_min":0,"x_max":0,"o":"m 349 681 l 349 966 l 44 966 l 44 0 l 349 0 l 349 386 b 443 490 349 449 386 490 b 537 386 500 490 537 449 l 537 0 l 841 0 l 841 435 b 552 744 841 622 728 744 b 349 681 467 744 398 723 z "},"i":{"ha":393,"x_min":0,"x_max":0,"o":"m 33 907 b 196 768 33 822 97 768 b 359 907 295 768 359 822 b 196 1046 359 991 295 1046 b 33 907 97 1046 33 991 z m 349 725 l 44 725 l 44 0 l 349 0 z "},"j":{"ha":478,"x_min":0,"x_max":0,"o":"m 51 17 b -9 29 27 17 5 23 l -33 -243 b 87 -261 -14 -251 35 -261 b 433 85 298 -261 433 -126 l 433 725 l 128 725 l 128 85 b 51 17 128 43 103 17 z m 118 907 b 281 768 118 822 182 768 b 444 907 380 768 444 822 b 281 1046 444 991 380 1046 b 118 907 182 1046 118 991 z "},"k":{"ha":843,"x_min":0,"x_max":0,"o":"m 349 966 l 44 966 l 44 0 l 349 0 l 349 251 l 501 0 l 844 0 l 602 398 l 844 725 l 501 725 l 349 519 z "},"l":{"ha":394,"x_min":0,"x_max":0,"o":"m 349 966 l 44 966 l 44 0 l 349 0 z "},"m":{"ha":1303,"x_min":0,"x_max":0,"o":"m 535 744 b 349 680 459 744 396 721 l 349 725 l 44 725 l 44 0 l 349 0 l 349 391 b 426 478 349 440 379 478 b 503 391 473 478 503 440 l 503 0 l 808 0 l 808 391 b 885 478 808 440 838 478 b 962 391 932 478 962 440 l 962 0 l 1266 0 l 1266 454 b 989 744 1266 630 1159 744 b 752 642 885 744 803 706 b 535 744 705 706 629 744 z "},"n":{"ha":878,"x_min":0,"x_max":0,"o":"m 349 681 l 349 725 l 44 725 l 44 0 l 349 0 l 349 386 b 443 490 349 449 386 490 b 537 386 500 490 537 449 l 537 0 l 841 0 l 841 435 b 552 744 841 622 728 744 b 349 681 467 744 398 723 z "},"o":{"ha":833,"x_min":0,"x_max":0,"o":"m 18 362 b 417 -19 18 130 175 -19 b 815 362 658 -19 815 130 b 417 744 815 594 658 744 b 18 362 175 744 18 594 z m 417 466 b 511 362 473 466 511 425 b 417 258 511 299 473 258 b 322 362 360 258 322 299 b 417 466 322 425 360 466 z "},"p":{"ha":863,"x_min":0,"x_max":0,"o":"m 44 -242 l 349 -242 l 349 40 b 527 -19 392 2 451 -19 b 841 362 718 -19 841 130 b 527 744 841 594 718 744 b 349 685 451 744 392 722 l 349 725 l 44 725 z m 349 362 b 443 466 349 425 386 466 b 537 362 500 466 537 425 b 443 258 537 299 500 258 b 349 362 386 258 349 299 z "},"q":{"ha":863,"x_min":0,"x_max":0,"o":"m 335 -19 b 514 40 411 -19 470 2 l 514 -242 l 818 -242 l 818 725 l 514 725 l 514 685 b 335 744 470 722 411 744 b 21 362 144 744 21 594 b 335 -19 21 130 144 -19 z m 325 362 b 419 466 325 425 363 466 b 514 362 476 466 514 425 b 419 258 514 299 476 258 b 325 362 363 258 325 299 z "},"r":{"ha":692,"x_min":0,"x_max":0,"o":"m 349 683 l 349 725 l 44 725 l 44 0 l 349 0 l 349 386 b 491 490 349 449 404 490 b 660 430 569 490 599 466 l 684 702 b 527 744 653 725 595 744 b 349 683 456 744 395 723 z "},"s":{"ha":685,"x_min":0,"x_max":0,"o":"m 392 744 b 26 504 156 744 26 644 b 360 286 26 270 360 344 b 227 258 360 262 282 258 b 58 295 180 258 99 275 l 34 23 b 275 -19 65 4 211 -19 b 665 221 529 -19 665 81 b 331 437 665 472 331 379 b 441 466 331 464 408 466 b 610 430 488 466 577 449 l 634 702 b 392 744 602 718 505 744 z "},"t":{"ha":576,"x_min":0,"x_max":0,"o":"m 442 -19 b 563 -1 494 -19 543 -10 l 539 270 b 478 258 524 264 502 258 b 401 326 426 258 401 285 l 401 447 l 478 447 l 478 725 l 401 725 l 401 833 l 133 833 l 0 447 l 97 447 l 97 326 b 442 -19 97 116 232 -19 z "},"u":{"ha":876,"x_min":0,"x_max":0,"o":"m 325 -19 b 527 43 409 -19 478 1 l 527 0 l 832 0 l 832 725 l 527 725 l 527 338 b 433 234 527 275 490 234 b 339 338 376 234 339 275 l 339 725 l 35 725 l 35 290 b 325 -19 35 103 148 -19 z "},"v":{"ha":883,"x_min":0,"x_max":0,"o":"m 268 0 l 614 0 l 889 725 l 568 725 l 441 391 l 314 725 l -7 725 z "},"w":{"ha":1236,"x_min":0,"x_max":0,"o":"m -3 725 l 200 0 l 558 0 l 618 216 l 678 0 l 1036 0 l 1239 725 l 929 725 l 845 423 l 760 725 l 475 725 l 391 423 l 306 725 z "},"x":{"ha":954,"x_min":0,"x_max":0,"o":"m 594 0 l 964 0 l 668 371 l 939 725 l 570 725 l 479 606 l 384 725 l 14 725 l 286 385 l -10 0 l 360 0 l 475 150 z "},"y":{"ha":883,"x_min":0,"x_max":0,"o":"m 260 -261 b 646 85 437 -261 556 -155 l 889 725 l 568 725 l 441 390 l 314 725 l -7 725 l 260 21 b 224 17 249 18 237 17 b 163 29 200 17 178 23 l 139 -243 b 260 -261 158 -251 208 -261 z "},"ÿ":{"ha":883,"x_min":0,"x_max":0,"o":"m 260 -261 b 646 85 437 -261 556 -155 l 889 725 l 568 725 l 441 390 l 314 725 l -7 725 l 260 21 b 224 17 249 18 237 17 b 163 29 200 17 178 23 l 139 -243 b 260 -261 158 -251 208 -261 z "},"z":{"ha":811,"x_min":0,"x_max":0,"o":"m 509 254 l 803 725 l 63 725 l 63 471 l 292 471 l -1 0 l 776 0 l 776 254 z "},"{":{"ha":626,"x_min":0,"x_max":0,"o":"m 423 725 b 556 925 423 814 431 925 l 494 1154 b 114 725 231 1154 114 1001 b 29 516 114 590 97 552 l 29 450 b 114 242 97 414 114 376 b 494 -188 114 -35 231 -188 l 556 41 b 423 242 431 41 423 152 b 259 483 423 392 381 435 b 423 725 381 531 423 574 z "},"|":{"ha":163,"x_min":0,"x_max":0,"o":"m 114 966 l 49 966 l 49 -145 l 114 -145 z "},"}":{"ha":626,"x_min":0,"x_max":0,"o":"m 511 725 b 131 1154 511 1001 394 1154 l 69 925 b 202 725 194 925 202 814 b 366 483 202 574 245 531 b 202 242 245 435 202 392 b 69 41 202 152 194 41 l 131 -188 b 511 242 394 -188 511 -35 b 596 450 511 376 528 414 l 596 516 b 511 725 528 552 511 590 z "}," ":{"ha":507,"x_min":0,"x_max":0,"o":""},"¢":{"ha":747,"x_min":0,"x_max":0,"o":"m 512 466 b 681 430 559 466 648 449 l 705 702 b 498 744 675 723 565 741 l 498 869 l 433 869 l 433 741 b 33 362 189 723 33 578 b 433 -17 33 146 189 1 l 433 -145 l 498 -145 l 498 -19 b 705 23 565 -17 675 1 l 681 295 b 512 258 648 275 559 258 l 498 258 l 498 466 l 512 466 z m 433 268 b 338 362 374 283 338 316 b 433 456 338 408 374 442 z "},"¥":{"ha":1129,"x_min":0,"x_max":0,"o":"m 69 966 l 366 452 l 216 452 l 216 386 l 404 386 l 404 314 l 216 314 l 216 249 l 404 249 l 404 0 l 725 0 l 725 249 l 914 249 l 914 314 l 725 314 l 725 386 l 914 386 l 914 452 l 763 452 l 1060 966 l 709 966 l 565 706 l 420 966 z "},"­":{"ha":0,"x_min":0,"x_max":0,"o":""},"À":{"ha":967,"x_min":0,"x_max":0,"o":"m 262 966 l -8 0 l 313 0 l 483 609 l 653 0 l 975 0 l 704 966 z m 278 1280 l 423 1058 l 544 1058 l 544 1280 z "},"Á":{"ha":967,"x_min":0,"x_max":0,"o":"m 262 966 l -8 0 l 313 0 l 483 609 l 653 0 l 975 0 l 704 966 z m 423 1280 l 423 1058 l 544 1058 l 688 1280 z "},"Â":{"ha":967,"x_min":0,"x_max":0,"o":"m 262 966 l -8 0 l 313 0 l 483 609 l 653 0 l 975 0 l 704 966 z m 483 1292 l 281 1058 l 371 1058 l 483 1122 l 595 1058 l 685 1058 l 483 1292 z "},"Ã":{"ha":967,"x_min":0,"x_max":0,"o":"m 262 966 l -8 0 l 313 0 l 483 609 l 653 0 l 975 0 l 704 966 z m 288 1086 b 679 1086 442 1182 524 989 l 679 1235 b 288 1235 524 1139 442 1332 z "},"Ä":{"ha":967,"x_min":0,"x_max":0,"o":"m 262 966 l -8 0 l 313 0 l 483 609 l 653 0 l 975 0 l 704 966 z m 249 1169 b 360 1058 249 1105 296 1058 b 471 1169 424 1058 471 1105 b 360 1280 471 1233 424 1280 b 249 1169 296 1280 249 1233 z m 495 1169 b 606 1058 495 1105 542 1058 b 717 1169 670 1058 717 1105 b 606 1280 717 1233 670 1280 b 495 1169 542 1280 495 1233 z "},"Å":{"ha":967,"x_min":0,"x_max":0,"o":"m 262 966 l -8 0 l 313 0 l 483 609 l 653 0 l 975 0 l 704 966 z m 344 1191 b 483 1058 344 1110 399 1058 b 622 1191 568 1058 622 1110 b 483 1323 622 1272 568 1323 b 344 1191 399 1323 344 1272 z m 447 1191 b 483 1230 447 1215 461 1230 b 519 1191 505 1230 519 1215 b 483 1151 519 1166 505 1151 b 447 1191 461 1151 447 1166 z "},"Æ":{"ha":1353,"x_min":0,"x_max":0,"o":"m 1321 966 l 355 966 l -12 0 l 326 0 l 577 661 l 577 0 l 1321 0 l 1321 297 l 898 297 l 898 372 l 1212 372 l 1212 618 l 898 618 l 898 669 l 1321 669 z "},"Ç":{"ha":874,"x_min":0,"x_max":0,"o":"m 530 985 b 15 483 207 985 15 789 b 469 -17 15 197 183 6 l 461 -80 l 518 -111 b 545 -161 536 -111 545 -121 b 518 -209 545 -199 536 -209 l 518 -301 b 685 -161 634 -301 685 -240 b 560 -34 685 -91 646 -45 l 562 -18 b 865 98 685 -12 788 29 l 747 347 b 537 278 700 315 606 278 b 336 483 420 278 336 359 b 537 688 336 607 420 688 b 747 619 606 688 700 651 l 865 868 b 530 985 782 943 667 985 z "},"È":{"ha":825,"x_min":0,"x_max":0,"o":"m 49 966 l 49 0 l 792 0 l 792 297 l 370 297 l 370 372 l 684 372 l 684 618 l 370 618 l 370 669 l 792 669 l 792 966 z m 215 1280 l 360 1058 l 481 1058 l 481 1280 z "},"É":{"ha":825,"x_min":0,"x_max":0,"o":"m 49 966 l 49 0 l 792 0 l 792 297 l 370 297 l 370 372 l 684 372 l 684 618 l 370 618 l 370 669 l 792 669 l 792 966 z m 360 1280 l 360 1058 l 481 1058 l 626 1280 z "},"Ê":{"ha":825,"x_min":0,"x_max":0,"o":"m 49 966 l 49 0 l 792 0 l 792 297 l 370 297 l 370 372 l 684 372 l 684 618 l 370 618 l 370 669 l 792 669 l 792 966 z m 421 1292 l 219 1058 l 308 1058 l 421 1122 l 533 1058 l 622 1058 l 421 1292 z "},"Ë":{"ha":825,"x_min":0,"x_max":0,"o":"m 49 966 l 49 0 l 792 0 l 792 297 l 370 297 l 370 372 l 684 372 l 684 618 l 370 618 l 370 669 l 792 669 l 792 966 z m 186 1169 b 297 1058 186 1105 233 1058 b 408 1169 361 1058 408 1105 b 297 1280 408 1233 361 1280 b 186 1169 233 1280 186 1233 z m 433 1169 b 544 1058 433 1105 480 1058 b 655 1169 608 1058 655 1105 b 544 1280 655 1233 608 1280 b 433 1169 480 1280 433 1233 z "},"Ì":{"ha":419,"x_min":0,"x_max":0,"o":"m 4 1280 l 149 1058 l 270 1058 l 270 1280 z m 49 966 l 49 0 l 370 0 l 370 966 z "},"Í":{"ha":419,"x_min":0,"x_max":0,"o":"m 49 966 l 49 0 l 370 0 l 370 966 z m 149 1058 l 270 1058 l 414 1280 l 149 1280 z "},"Î":{"ha":418,"x_min":0,"x_max":0,"o":"m 209 1292 l 7 1058 l 96 1058 l 209 1122 l 321 1058 l 410 1058 l 209 1292 z m 48 966 l 48 0 l 369 0 l 369 966 z "},"Ï":{"ha":419,"x_min":0,"x_max":0,"o":"m -25 1169 b 86 1058 -25 1105 22 1058 b 197 1169 150 1058 197 1105 b 86 1280 197 1233 150 1280 b -25 1169 22 1280 -25 1233 z m 49 966 l 49 0 l 370 0 l 370 966 z m 221 1169 b 332 1058 221 1105 268 1058 b 444 1169 396 1058 444 1105 b 332 1280 444 1233 396 1280 b 221 1169 268 1280 221 1233 z "},"Ð":{"ha":951,"x_min":0,"x_max":0,"o":"m 74 29 b 420 -19 182 1 319 -19 b 934 483 750 -19 934 165 b 420 985 934 801 750 985 b 74 937 319 985 182 965 l 74 516 l 14 516 l 14 450 l 74 450 z m 395 278 l 395 450 l 526 450 l 526 516 l 395 516 l 395 688 b 613 483 533 688 613 611 b 395 278 613 355 533 278 z "},"Ñ":{"ha":946,"x_min":0,"x_max":0,"o":"m 49 966 l 49 0 l 370 0 l 370 367 l 515 0 l 896 0 l 896 966 l 575 966 l 575 599 l 430 966 z m 277 1086 b 668 1086 431 1182 514 989 l 668 1235 b 277 1235 514 1139 431 1332 z "},"Ò":{"ha":1011,"x_min":0,"x_max":0,"o":"m 506 -19 b 996 483 804 -19 996 178 b 506 985 996 789 804 985 b 15 483 207 985 15 789 b 506 -19 15 178 207 -19 z m 300 1280 l 445 1058 l 566 1058 l 566 1280 z m 336 483 b 506 688 336 607 403 688 b 675 483 608 688 675 607 b 506 278 675 359 608 278 b 336 483 403 278 336 359 z "},"Ó":{"ha":1011,"x_min":0,"x_max":0,"o":"m 506 -19 b 996 483 804 -19 996 178 b 506 985 996 789 804 985 b 15 483 207 985 15 789 b 506 -19 15 178 207 -19 z m 336 483 b 506 688 336 607 403 688 b 675 483 608 688 675 607 b 506 278 675 359 608 278 b 336 483 403 278 336 359 z m 445 1058 l 566 1058 l 711 1280 l 445 1280 z "},"Ô":{"ha":1011,"x_min":0,"x_max":0,"o":"m 506 -19 b 996 483 804 -19 996 178 b 506 985 996 789 804 985 b 15 483 207 985 15 789 b 506 -19 15 178 207 -19 z m 304 1058 l 393 1058 l 506 1122 l 618 1058 l 707 1058 l 506 1292 z m 336 483 b 506 688 336 607 403 688 b 675 483 608 688 675 607 b 506 278 675 359 608 278 b 336 483 403 278 336 359 z "},"Õ":{"ha":1011,"x_min":0,"x_max":0,"o":"m 506 -19 b 996 483 804 -19 996 178 b 506 985 996 789 804 985 b 15 483 207 985 15 789 b 506 -19 15 178 207 -19 z m 310 1086 b 701 1086 464 1182 547 989 l 701 1235 b 310 1235 547 1139 464 1332 z m 336 483 b 506 688 336 607 403 688 b 675 483 608 688 675 607 b 506 278 675 359 608 278 b 336 483 403 278 336 359 z "},"Ö":{"ha":1011,"x_min":0,"x_max":0,"o":"m 506 -19 b 996 483 804 -19 996 178 b 506 985 996 789 804 985 b 15 483 207 985 15 789 b 506 -19 15 178 207 -19 z m 271 1169 b 382 1058 271 1105 318 1058 b 493 1169 446 1058 493 1105 b 382 1280 493 1233 446 1280 b 271 1169 318 1280 271 1233 z m 336 483 b 506 688 336 607 403 688 b 675 483 608 688 675 607 b 506 278 675 359 608 278 b 336 483 403 278 336 359 z m 518 1169 b 629 1058 518 1105 565 1058 b 740 1169 693 1058 740 1105 b 629 1280 740 1233 693 1280 b 518 1169 565 1280 518 1233 z "},"×":{"ha":457,"x_min":0,"x_max":0,"o":"m 75 682 l 29 636 l 183 483 l 29 330 l 75 284 l 228 437 l 382 284 l 428 330 l 274 483 l 428 636 l 382 682 l 228 529 z "},"Ø":{"ha":1011,"x_min":0,"x_max":0,"o":"m 725 943 l 764 1038 l 696 1038 l 666 964 b 506 985 617 978 564 985 b 15 483 207 985 15 789 b 286 23 15 261 117 97 l 247 -72 l 315 -72 l 345 2 b 506 -19 394 -12 448 -19 b 996 483 804 -19 996 178 b 725 943 996 705 894 869 z m 336 483 b 506 688 336 607 403 688 b 553 682 522 688 538 686 l 403 313 b 336 483 361 348 336 408 z m 458 284 l 608 653 b 675 483 650 618 675 558 b 506 278 675 359 608 278 b 458 284 489 278 473 280 z "},"Ù":{"ha":908,"x_min":0,"x_max":0,"o":"m 872 423 l 872 966 l 551 966 l 551 423 b 454 278 551 334 513 278 b 357 423 395 278 357 334 l 357 966 l 36 966 l 36 423 b 454 -19 36 155 200 -19 b 872 423 708 -19 872 155 z m 249 1280 l 394 1058 l 514 1058 l 514 1280 z "},"Ú":{"ha":908,"x_min":0,"x_max":0,"o":"m 872 423 l 872 966 l 551 966 l 551 423 b 454 278 551 334 513 278 b 357 423 395 278 357 334 l 357 966 l 36 966 l 36 423 b 454 -19 36 155 200 -19 b 872 423 708 -19 872 155 z m 394 1058 l 514 1058 l 659 1280 l 394 1280 z "},"Û":{"ha":908,"x_min":0,"x_max":0,"o":"m 872 423 l 872 966 l 551 966 l 551 423 b 454 278 551 334 513 278 b 357 423 395 278 357 334 l 357 966 l 36 966 l 36 423 b 454 -19 36 155 200 -19 b 872 423 708 -19 872 155 z m 252 1058 l 342 1058 l 454 1122 l 566 1058 l 656 1058 l 454 1292 z "},"Ü":{"ha":908,"x_min":0,"x_max":0,"o":"m 872 423 l 872 966 l 551 966 l 551 423 b 454 278 551 334 513 278 b 357 423 395 278 357 334 l 357 966 l 36 966 l 36 423 b 454 -19 36 155 200 -19 b 872 423 708 -19 872 155 z m 220 1169 b 331 1058 220 1105 267 1058 b 442 1169 395 1058 442 1105 b 331 1280 442 1233 395 1280 b 220 1169 267 1280 220 1233 z m 466 1169 b 577 1058 466 1105 513 1058 b 688 1169 641 1058 688 1105 b 577 1280 688 1233 641 1280 b 466 1169 513 1280 466 1233 z "},"Ý":{"ha":951,"x_min":0,"x_max":0,"o":"m -19 966 l 315 386 l 315 0 l 636 0 l 636 386 l 971 966 l 621 966 l 476 706 l 331 966 z m 415 1058 l 536 1058 l 681 1280 l 415 1280 z "},"à":{"ha":863,"x_min":0,"x_max":0,"o":"m 514 725 l 514 685 b 335 744 470 722 411 744 b 21 362 144 744 21 594 b 335 -19 21 130 144 -19 b 514 40 411 -19 470 2 l 514 0 l 818 0 l 818 725 z m 202 1038 l 347 816 l 468 816 l 468 1038 z m 325 362 b 419 466 325 425 363 466 b 514 362 476 466 514 425 b 419 258 514 299 476 258 b 325 362 363 258 325 299 z "},"á":{"ha":863,"x_min":0,"x_max":0,"o":"m 818 725 l 514 725 l 514 685 b 335 744 470 722 411 744 b 21 362 144 744 21 594 b 335 -19 21 130 144 -19 b 514 40 411 -19 470 2 l 514 0 l 818 0 z m 325 362 b 419 466 325 425 363 466 b 514 362 476 466 514 425 b 419 258 514 299 476 258 b 325 362 363 258 325 299 z m 347 816 l 468 816 l 613 1038 l 347 1038 z "},"â":{"ha":863,"x_min":0,"x_max":0,"o":"m 818 725 l 514 725 l 514 685 b 335 744 470 722 411 744 b 21 362 144 744 21 594 b 335 -19 21 130 144 -19 b 514 40 411 -19 470 2 l 514 0 l 818 0 z m 407 1051 l 206 816 l 295 816 l 407 880 l 520 816 l 609 816 l 407 1051 z m 325 362 b 419 466 325 425 363 466 b 514 362 476 466 514 425 b 419 258 514 299 476 258 b 325 362 363 258 325 299 z "},"ã":{"ha":863,"x_min":0,"x_max":0,"o":"m 818 725 l 514 725 l 514 685 b 335 744 470 722 411 744 b 21 362 144 744 21 594 b 335 -19 21 130 144 -19 b 514 40 411 -19 470 2 l 514 0 l 818 0 z m 212 844 b 603 844 366 941 448 747 l 603 994 b 212 994 448 897 366 1090 z m 325 362 b 419 466 325 425 363 466 b 514 362 476 466 514 425 b 419 258 514 299 476 258 b 325 362 363 258 325 299 z "},"ä":{"ha":863,"x_min":0,"x_max":0,"o":"m 818 725 l 514 725 l 514 685 b 335 744 470 722 411 744 b 21 362 144 744 21 594 b 335 -19 21 130 144 -19 b 514 40 411 -19 470 2 l 514 0 l 818 0 z m 173 927 b 284 816 173 863 220 816 b 395 927 348 816 395 863 b 284 1038 395 991 348 1038 b 173 927 220 1038 173 991 z m 325 362 b 419 466 325 425 363 466 b 514 362 476 466 514 425 b 419 258 514 299 476 258 b 325 362 363 258 325 299 z m 419 927 b 530 816 419 863 466 816 b 642 927 594 816 642 863 b 530 1038 642 991 594 1038 b 419 927 466 1038 419 991 z "},"å":{"ha":863,"x_min":0,"x_max":0,"o":"m 818 725 l 514 725 l 514 685 b 335 744 470 722 411 744 b 21 362 144 744 21 594 b 335 -19 21 130 144 -19 b 514 40 411 -19 470 2 l 514 0 l 818 0 z m 268 949 b 407 816 268 868 323 816 b 546 949 492 816 546 868 b 407 1082 546 1030 492 1082 b 268 949 323 1082 268 1030 z m 325 362 b 419 466 325 425 363 466 b 514 362 476 466 514 425 b 419 258 514 299 476 258 b 325 362 363 258 325 299 z m 371 949 b 407 989 371 973 386 989 b 443 949 429 989 443 973 b 407 909 443 925 429 909 b 371 949 386 909 371 925 z "},"æ":{"ha":1256,"x_min":0,"x_max":0,"o":"m 888 744 b 755 725 840 744 796 737 l 514 725 l 514 685 b 335 744 470 722 411 744 b 21 362 144 744 21 594 b 335 -19 21 130 144 -19 b 514 40 411 -19 470 2 l 514 0 l 807 0 b 968 -19 855 -12 910 -19 b 1185 23 1032 -19 1154 0 l 1161 295 b 992 258 1128 275 1039 258 b 826 338 908 258 848 284 l 1238 338 l 1238 413 b 888 744 1238 613 1100 744 z m 325 362 b 419 466 325 425 363 466 b 514 362 476 466 514 425 b 419 258 514 299 476 258 b 325 362 363 258 325 299 z m 820 413 b 876 466 827 446 848 466 b 928 413 900 466 919 447 z "},"ç":{"ha":718,"x_min":0,"x_max":0,"o":"m 493 466 b 663 430 541 466 630 449 l 687 702 b 469 744 655 725 533 744 b 15 362 194 744 15 594 b 357 -11 15 164 147 25 l 347 -80 l 404 -111 b 432 -161 422 -111 432 -121 b 404 -209 432 -199 422 -209 l 404 -301 b 572 -161 520 -301 572 -240 b 446 -34 572 -91 532 -45 l 449 -19 l 469 -19 b 687 23 533 -19 655 0 l 663 295 b 493 258 630 275 541 258 b 320 362 388 258 320 299 b 493 466 320 425 388 466 z "},"è":{"ha":758,"x_min":0,"x_max":0,"o":"m 391 744 b 17 362 164 744 17 594 b 471 -19 17 130 195 -19 b 688 23 535 -19 657 0 l 664 295 b 495 258 631 275 542 258 b 329 338 412 258 351 284 l 741 338 l 741 413 b 391 744 741 613 604 744 z m 186 1038 l 331 816 l 451 816 l 451 1038 z m 323 413 b 379 466 331 446 351 466 b 431 413 403 466 422 447 z "},"é":{"ha":758,"x_min":0,"x_max":0,"o":"m 391 744 b 17 362 164 744 17 594 b 471 -19 17 130 195 -19 b 688 23 535 -19 657 0 l 664 295 b 495 258 631 275 542 258 b 329 338 412 258 351 284 l 741 338 l 741 413 b 391 744 741 613 604 744 z m 323 413 b 379 466 331 446 351 466 b 431 413 403 466 422 447 z m 331 1038 l 331 816 l 451 816 l 596 1038 z "},"ê":{"ha":758,"x_min":0,"x_max":0,"o":"m 391 744 b 17 362 164 744 17 594 b 471 -19 17 130 195 -19 b 688 23 535 -19 657 0 l 664 295 b 495 258 631 275 542 258 b 329 338 412 258 351 284 l 741 338 l 741 413 b 391 744 741 613 604 744 z m 391 1051 l 189 816 l 279 816 l 391 880 l 503 816 l 593 816 l 391 1051 z m 323 413 b 379 466 331 446 351 466 b 431 413 403 466 422 447 z "},"ë":{"ha":758,"x_min":0,"x_max":0,"o":"m 391 744 b 17 362 164 744 17 594 b 471 -19 17 130 195 -19 b 688 23 535 -19 657 0 l 664 295 b 495 258 631 275 542 258 b 329 338 412 258 351 284 l 741 338 l 741 413 b 391 744 741 613 604 744 z m 157 927 b 268 816 157 863 204 816 b 379 927 332 816 379 863 b 268 1038 379 991 332 1038 b 157 927 204 1038 157 991 z m 323 413 b 379 466 331 446 351 466 b 431 413 403 466 422 447 z m 403 927 b 514 816 403 863 450 816 b 625 927 578 816 625 863 b 514 1038 625 991 578 1038 b 403 927 450 1038 403 991 z "},"ì":{"ha":394,"x_min":0,"x_max":0,"o":"m -8 1038 l 137 816 l 257 816 l 257 1038 z m 349 725 l 45 725 l 45 0 l 349 0 z "},"í":{"ha":394,"x_min":0,"x_max":0,"o":"m 349 725 l 44 725 l 44 0 l 349 0 z m 136 816 l 257 816 l 402 1038 l 136 1038 z "},"î":{"ha":393,"x_min":0,"x_max":0,"o":"m 196 1051 l -6 816 l 84 816 l 196 880 l 308 816 l 398 816 l 196 1051 z m 348 725 l 44 725 l 44 0 l 348 0 z "},"ï":{"ha":394,"x_min":0,"x_max":0,"o":"m -37 927 b 74 816 -37 863 10 816 b 185 927 138 816 185 863 b 74 1038 185 991 138 1038 b -37 927 10 1038 -37 991 z m 349 725 l 45 725 l 45 0 l 349 0 z m 209 927 b 320 816 209 863 256 816 b 431 927 384 816 431 863 b 320 1038 431 991 384 1038 b 209 927 256 1038 209 991 z "},"ñ":{"ha":878,"x_min":0,"x_max":0,"o":"m 552 744 b 349 681 467 744 398 723 l 349 725 l 44 725 l 44 0 l 349 0 l 349 386 b 443 490 349 449 386 490 b 537 386 500 490 537 449 l 537 0 l 841 0 l 841 435 b 552 744 841 622 728 744 z m 271 844 b 663 844 426 941 508 747 l 663 994 b 271 994 508 897 426 1090 z "},"ò":{"ha":833,"x_min":0,"x_max":0,"o":"m 18 362 b 417 -19 18 130 175 -19 b 815 362 658 -19 815 130 b 417 744 815 594 658 744 b 18 362 175 744 18 594 z m 211 1038 l 356 816 l 477 816 l 477 1038 z m 417 466 b 511 362 473 466 511 425 b 417 258 511 299 473 258 b 322 362 360 258 322 299 b 417 466 322 425 360 466 z "},"ó":{"ha":833,"x_min":0,"x_max":0,"o":"m 18 362 b 417 -19 18 130 175 -19 b 815 362 658 -19 815 130 b 417 744 815 594 658 744 b 18 362 175 744 18 594 z m 417 466 b 511 362 473 466 511 425 b 417 258 511 299 473 258 b 322 362 360 258 322 299 b 417 466 322 425 360 466 z m 356 816 l 477 816 l 622 1038 l 356 1038 z "},"ô":{"ha":833,"x_min":0,"x_max":0,"o":"m 18 362 b 417 -19 18 130 175 -19 b 815 362 658 -19 815 130 b 417 744 815 594 658 744 b 18 362 175 744 18 594 z m 215 816 l 304 816 l 417 880 l 529 816 l 618 816 l 417 1051 z m 417 466 b 511 362 473 466 511 425 b 417 258 511 299 473 258 b 322 362 360 258 322 299 b 417 466 322 425 360 466 z "},"õ":{"ha":833,"x_min":0,"x_max":0,"o":"m 18 362 b 417 -19 18 130 175 -19 b 815 362 658 -19 815 130 b 417 744 815 594 658 744 b 18 362 175 744 18 594 z m 221 844 b 612 844 375 941 458 747 l 612 994 b 221 994 458 897 375 1090 z m 417 466 b 511 362 473 466 511 425 b 417 258 511 299 473 258 b 322 362 360 258 322 299 b 417 466 322 425 360 466 z "},"ö":{"ha":833,"x_min":0,"x_max":0,"o":"m 18 362 b 417 -19 18 130 175 -19 b 815 362 658 -19 815 130 b 417 744 815 594 658 744 b 18 362 175 744 18 594 z m 182 927 b 293 816 182 863 229 816 b 404 927 357 816 404 863 b 293 1038 404 991 357 1038 b 182 927 229 1038 182 991 z m 417 466 b 511 362 473 466 511 425 b 417 258 511 299 473 258 b 322 362 360 258 322 299 b 417 466 322 425 360 466 z m 429 927 b 540 816 429 863 476 816 b 651 927 604 816 651 863 b 540 1038 651 991 604 1038 b 429 927 476 1038 429 991 z "},"÷":{"ha":783,"x_min":0,"x_max":0,"o":"m 69 516 l 69 450 l 714 450 l 714 516 z m 243 752 b 392 604 243 667 306 604 b 540 752 478 604 540 667 b 392 901 540 838 478 901 b 243 752 306 901 243 838 z m 243 214 b 392 65 243 128 306 65 b 540 214 478 65 540 128 b 392 362 540 299 478 362 b 243 214 306 362 243 299 z "},"ø":{"ha":833,"x_min":0,"x_max":0,"o":"m 563 723 l 601 845 l 536 845 l 502 737 b 417 744 475 741 447 744 b 18 362 175 744 18 594 b 270 1 18 181 113 51 l 232 -121 l 297 -121 l 331 -12 b 417 -19 359 -17 386 -19 b 815 362 658 -19 815 130 b 563 723 815 543 720 674 z m 357 278 b 322 362 336 296 322 325 b 417 466 322 425 360 466 l 357 278 z m 511 362 b 417 258 511 299 473 258 l 476 447 b 511 362 497 429 511 400 z "},"ù":{"ha":878,"x_min":0,"x_max":0,"o":"m 326 -19 b 529 43 410 -19 479 1 l 529 0 l 833 0 l 833 725 l 529 725 l 529 338 b 435 234 529 275 491 234 b 340 338 378 234 340 275 l 340 725 l 36 725 l 36 290 b 326 -19 36 103 150 -19 z m 229 1038 l 374 816 l 495 816 l 495 1038 z "},"ú":{"ha":878,"x_min":0,"x_max":0,"o":"m 326 -19 b 529 43 410 -19 479 1 l 529 0 l 833 0 l 833 725 l 529 725 l 529 338 b 435 234 529 275 491 234 b 340 338 378 234 340 275 l 340 725 l 36 725 l 36 290 b 326 -19 36 103 150 -19 z m 374 816 l 495 816 l 640 1038 l 374 1038 z "},"û":{"ha":878,"x_min":0,"x_max":0,"o":"m 326 -19 b 529 43 410 -19 479 1 l 529 0 l 833 0 l 833 725 l 529 725 l 529 338 b 435 234 529 275 491 234 b 340 338 378 234 340 275 l 340 725 l 36 725 l 36 290 b 326 -19 36 103 150 -19 z m 233 816 l 322 816 l 435 880 l 547 816 l 636 816 l 435 1051 z "},"ü":{"ha":878,"x_min":0,"x_max":0,"o":"m 326 -19 b 529 43 410 -19 479 1 l 529 0 l 833 0 l 833 725 l 529 725 l 529 338 b 435 234 529 275 491 234 b 340 338 378 234 340 275 l 340 725 l 36 725 l 36 290 b 326 -19 36 103 150 -19 z m 200 927 b 311 816 200 863 247 816 b 423 927 375 816 423 863 b 311 1038 423 991 375 1038 b 200 927 247 1038 200 991 z m 447 927 b 558 816 447 863 494 816 b 669 927 622 816 669 863 b 558 1038 669 991 622 1038 b 447 927 494 1038 447 991 z "},"ý":{"ha":883,"x_min":0,"x_max":0,"o":"m 260 -261 b 646 85 437 -261 556 -155 l 889 725 l 568 725 l 441 390 l 314 725 l -7 725 l 260 21 b 224 17 249 18 237 17 b 163 29 200 17 178 23 l 139 -243 b 260 -261 158 -251 208 -261 z m 381 816 l 501 816 l 646 1038 l 381 1038 z "},"‘":{"ha":361,"x_min":0,"x_max":0,"o":"m 180 1041 b 220 1175 126 1041 180 1125 b 32 892 120 1125 32 1007 b 180 744 32 807 95 744 b 329 892 266 744 329 807 b 180 1041 329 978 266 1041 z "},"’":{"ha":325,"x_min":0,"x_max":0,"o":"m 158 878 b 118 744 213 878 158 793 b 307 1026 219 793 307 912 b 158 1175 307 1112 244 1175 b 10 1026 73 1175 10 1112 b 158 878 10 941 73 878 z "},"“":{"ha":683,"x_min":0,"x_max":0,"o":"m 32 892 b 180 744 32 807 95 744 b 329 892 266 744 329 807 b 180 1041 329 978 266 1041 b 220 1175 126 1041 180 1125 b 32 892 120 1125 32 1007 z m 502 1041 b 542 1175 447 1041 502 1125 b 353 892 441 1125 353 1007 b 502 744 353 807 416 744 b 650 892 587 744 650 807 b 502 1041 650 978 587 1041 z "},"”":{"ha":647,"x_min":0,"x_max":0,"o":"m 158 878 b 118 744 213 878 158 793 b 307 1026 219 793 307 912 b 158 1175 307 1112 244 1175 b 10 1026 73 1175 10 1112 b 158 878 10 941 73 878 z m 331 1026 b 479 878 331 941 394 878 b 440 744 534 878 479 793 b 628 1026 540 793 628 912 b 479 1175 628 1112 565 1175 b 331 1026 394 1175 331 1112 z "},"€":{"ha":972,"x_min":0,"x_max":0,"o":"m 92 519 b 91 483 91 507 91 495 b 92 447 91 471 91 459 l 18 447 l 18 382 l 98 382 b 605 -19 136 135 320 -19 b 941 98 743 -19 857 23 l 822 347 b 612 278 775 315 681 278 b 433 382 531 278 466 316 l 716 382 l 716 447 l 414 447 b 412 483 413 459 412 471 b 414 519 412 495 413 507 l 716 519 l 716 584 l 433 584 b 612 688 466 650 531 688 b 822 619 681 688 775 651 l 941 868 b 605 985 857 943 743 985 b 98 584 320 985 136 831 l 18 584 l 18 519 l 92 519 z "},"ﬆ":{"ha":1261,"x_min":0,"x_max":0,"o":"m 26 504 b 360 286 26 270 360 344 b 227 258 360 262 282 258 b 58 295 180 258 99 275 l 34 23 b 275 -19 65 4 211 -19 b 665 221 529 -19 665 81 b 331 437 665 472 331 379 b 441 466 331 464 408 466 b 610 430 488 466 577 449 l 634 702 b 695 966 536 900 577 966 b 803 789 771 966 838 892 l 686 447 l 782 447 l 782 326 b 1128 -19 782 116 918 -19 b 1248 -1 1180 -19 1229 -10 l 1224 270 b 1164 258 1210 264 1188 258 b 1087 326 1112 258 1087 285 l 1087 447 l 1164 447 l 1164 725 l 1087 725 l 1087 769 b 686 1041 1087 939 829 1041 b 418 744 550 1041 367 974 l 392 744 b 26 504 156 744 26 644 z "}}}
